<svg width="64" height="64" viewBox="0 0 64 64" fill="none" xmlns="http://www.w3.org/2000/svg">
<rect x="0.5" y="0.5" width="63" height="63" rx="31.5" stroke="white"/>
<g clip-path="url(#clip0_12307_81)">
<path d="M39.7744 23.1903C39.774 23.1903 39.7736 23.1902 39.7731 23.1902L32.8622 23.2208C32.3445 23.2231 31.9265 23.6446 31.9288 24.1624C31.9311 24.6802 32.3526 25.0981 32.8704 25.0958L37.5103 25.0753L23.4994 39.1425C23.134 39.5093 23.1352 40.1029 23.5021 40.4683C23.8689 40.8337 24.4625 40.8325 24.8279 40.4656L38.8388 26.3985L38.8369 31.0384C38.8367 31.5562 39.2563 31.976 39.774 31.9762C40.2919 31.9765 40.7117 31.5568 40.7119 31.0391L40.7148 24.1281C40.7148 24.1277 40.7147 24.1273 40.7148 24.1268C40.7142 23.6081 40.2915 23.1887 39.7744 23.1903Z" fill="white"/>
</g>
<defs>
<clipPath id="clip0_12307_81">
<rect width="24" height="24" fill="white" transform="translate(15 32) rotate(-45.1148)"/>
</clipPath>
</defs>
</svg>
