<svg width="20" height="20" viewBox="0 0 20 20" fill="none" xmlns="http://www.w3.org/2000/svg">
<path d="M5.71429 0H14.2857C15.8012 0 17.2547 0.602039 18.3263 1.67368C19.398 2.74531 20 4.19876 20 5.71429V14.2857C20 15.8012 19.398 17.2547 18.3263 18.3263C17.2547 19.398 15.8012 20 14.2857 20H5.71429C4.19876 20 2.74531 19.398 1.67368 18.3263C0.602039 17.2547 0 15.8012 0 14.2857V5.71429C0 4.19876 0.602039 2.74531 1.67368 1.67368C2.74531 0.602039 4.19876 0 5.71429 0ZM10 14.2857C11.1366 14.2857 12.2267 13.8342 13.0305 13.0305C13.8342 12.2267 14.2857 11.1366 14.2857 10C14.2857 8.86336 13.8342 7.77327 13.0305 6.96954C12.2267 6.16582 11.1366 5.71429 10 5.71429C8.86336 5.71429 7.77327 6.16582 6.96954 6.96954C6.16582 7.77327 5.71429 8.86336 5.71429 10C5.71429 11.1366 6.16582 12.2267 6.96954 13.0305C7.77327 13.8342 8.86336 14.2857 10 14.2857ZM14.92 6.34857C15.0903 6.35428 15.2599 6.32568 15.4189 6.26447C15.5779 6.20325 15.723 6.11067 15.8454 5.99224C15.9679 5.87382 16.0653 5.73196 16.1318 5.57511C16.1983 5.41827 16.2326 5.24965 16.2326 5.07929C16.2326 4.90892 16.1983 4.7403 16.1318 4.58346C16.0653 4.42661 15.9679 4.28476 15.8454 4.16633C15.723 4.0479 15.5779 3.95532 15.4189 3.89411C15.2599 3.83289 15.0903 3.80429 14.92 3.81C14.5907 3.82105 14.2786 3.95961 14.0496 4.19645C13.8206 4.43328 13.6926 4.74984 13.6926 5.07929C13.6926 5.40874 13.8206 5.7253 14.0496 5.96213C14.2786 6.19896 14.5907 6.33752 14.92 6.34857Z" fill="#DFDFDF"/>
</svg>
